<?xml version="1.0" encoding="UTF-8"?>
<svg width="26px" height="29px" viewBox="0 0 26 29" version="1.1" xmlns="http://www.w3.org/2000/svg" xmlns:xlink="http://www.w3.org/1999/xlink">
    <!-- Generator: Sketch 46.2 (44496) - http://www.bohemiancoding.com/sketch -->
    <title>Shape</title>
    <desc>Created with Sketch.</desc>
    <defs></defs>
    <g id="Page-1" stroke="none" stroke-width="1" fill="none" fill-rule="evenodd">
        <g id="Desktop-HD" transform="translate(-483.000000, -119.000000)" fill-rule="nonzero" fill="#87919A">
            <g id="Group">
                <path d="M507.784664,120.906667 L504.630252,120.906667 L504.630252,119.476667 C504.630252,119.21307 504.428821,119 504.179622,119 L501.02521,119 C500.776012,119 500.57458,119.21307 500.57458,119.476667 L500.57458,120.906667 L490.660714,120.906667 L490.660714,119.476667 C490.660714,119.21307 490.459283,119 490.210084,119 L487.055672,119 C486.806474,119 486.605042,119.21307 486.605042,119.476667 L486.605042,120.906667 L483.45063,120.906667 C483.201432,120.906667 483,121.119737 483,121.383333 L483,126.626667 L483,147.123334 C483,147.38693 483.201432,147.6 483.45063,147.6 L507.784664,147.6 C508.033863,147.6 508.235294,147.38693 508.235294,147.123334 L508.235294,126.626667 L508.235294,121.383333 C508.235294,121.119737 508.033863,120.906667 507.784664,120.906667 Z M501.475841,119.953333 L503.728992,119.953333 L503.728992,121.383333 L503.728992,122.813333 L501.475841,122.813333 L501.475841,121.383333 L501.475841,119.953333 Z M487.506303,119.953333 L489.759454,119.953333 L489.759454,121.383333 L489.759454,122.813333 L487.506303,122.813333 L487.506303,121.383333 L487.506303,119.953333 Z M483.901261,121.86 L486.605042,121.86 L486.605042,123.29 C486.605042,123.553597 486.806474,123.766667 487.055672,123.766667 L490.210084,123.766667 C490.459283,123.766667 490.660714,123.553597 490.660714,123.29 L490.660714,121.86 L500.57458,121.86 L500.57458,123.29 C500.57458,123.553597 500.776012,123.766667 501.02521,123.766667 L504.179622,123.766667 C504.428821,123.766667 504.630252,123.553597 504.630252,123.29 L504.630252,121.86 L507.334034,121.86 L507.334034,126.15 L483.901261,126.15 L483.901261,121.86 Z M483.901261,146.646667 L483.901261,127.103333 L507.334034,127.103333 L507.334034,146.646667 L483.901261,146.646667 Z" id="Shape"></path>
            </g>
        </g>
    </g>
</svg>