<?xml version="1.0" encoding="UTF-8"?>
<svg width="29px" height="28px" viewBox="0 0 29 28" version="1.1" xmlns="http://www.w3.org/2000/svg" xmlns:xlink="http://www.w3.org/1999/xlink">
    <!-- Generator: Sketch 46.2 (44496) - http://www.bohemiancoding.com/sketch -->
    <title>Box open 2</title>
    <desc>Created with Sketch.</desc>
    <defs></defs>
    <g id="Page-1" stroke="none" stroke-width="1" fill="none" fill-rule="evenodd">
        <g id="Desktop-HD" transform="translate(-482.000000, -286.000000)" fill="#2ECC71">
            <g id="Group">
                <path d="M506.372737,295.983173 L509.938088,292.419626 C510.052576,292.308744 510.105763,292.150084 510.08593,291.996832 C510.063393,291.836369 509.971442,291.699344 509.836221,291.620014 L500.221043,286.066902 C500.021816,285.952414 499.772107,285.987572 499.60984,286.151641 L496.04449,289.713385 L492.47914,286.151641 C492.315071,285.987572 492.065361,285.952414 491.866134,286.066902 L482.25276,291.620014 C482.113932,291.699344 482.021981,291.836369 482.004853,291.996832 C481.984119,292.150084 482.034602,292.308744 482.145484,292.419626 L485.712637,295.983173 L482.145484,299.550327 C482.034602,299.661208 481.983217,299.819869 482.004853,299.97312 C482.022882,300.128175 482.113932,300.267003 482.25276,300.346333 L485.919977,302.466612 L485.919977,307.083087 C485.919977,307.266087 486.018238,307.431959 486.173293,307.523009 L495.790273,313.076121 C495.8678,313.123899 495.956145,313.14283 496.043589,313.14283 C496.130131,313.14283 496.217574,313.123899 496.296904,313.076121 L505.910279,307.523009 C506.065333,307.431058 506.163594,307.266087 506.163594,307.083087 L506.163594,302.466612 L509.834418,300.346333 C509.96964,300.267003 510.06159,300.128175 510.084127,299.97312 C510.103058,299.81446 510.050773,299.661208 509.936285,299.550327 L506.372737,295.983173 L506.372737,295.983173 Z M504.640094,295.983173 L496.04449,300.948521 L487.44528,295.983173 L493.892659,292.260966 L496.04449,291.021432 L503.819748,295.508094 L504.640094,295.983173 L504.640094,295.983173 Z M500.051565,287.141465 L508.754446,292.171719 L505.573125,295.349433 L505.05207,295.048339 L496.868442,290.324588 L500.051565,287.141465 L500.051565,287.141465 Z M492.036513,287.141465 L495.219637,290.324588 L486.51315,295.349433 L483.330027,292.171719 L492.036513,287.141465 L492.036513,287.141465 Z M486.51315,296.616913 L495.216031,301.645364 L492.034711,304.823078 L486.680825,301.732808 L486.679023,301.732808 L483.330027,299.798233 L486.51315,296.616913 L486.51315,296.616913 Z M486.934141,303.052573 L491.864331,305.897642 C491.943661,305.94542 492.032006,305.966154 492.117647,305.966154 C492.128464,305.966154 492.135676,305.953533 492.147395,305.953533 C492.265489,305.949927 492.385386,305.909361 492.476435,305.820114 L495.536957,302.759593 L495.536957,311.759961 L486.934141,306.789205 L486.934141,303.052573 L486.934141,303.052573 Z M505.148529,306.791008 L496.551121,311.756355 L496.551121,302.760494 L499.608037,305.821016 C499.698185,305.911164 499.814476,305.946322 499.935274,305.954435 C499.946092,305.954435 499.956008,305.967056 499.965023,305.967056 C500.053368,305.967056 500.139009,305.946322 500.218339,305.898543 L505.148529,303.053475 L505.148529,306.791008 L505.148529,306.791008 Z M500.049762,304.82398 L496.868442,301.646266 L505.573125,296.617815 L508.754446,299.799135 L500.049762,304.82398 L500.049762,304.82398 Z" id="Box-open-2"></path>
            </g>
        </g>
    </g>
</svg>