<?xml version="1.0" encoding="UTF-8"?>
<svg width="27px" height="27px" viewBox="0 0 27 27" version="1.1" xmlns="http://www.w3.org/2000/svg" xmlns:xlink="http://www.w3.org/1999/xlink">
    <!-- Generator: Sketch 46.2 (44496) - http://www.bohemiancoding.com/sketch -->
    <title>Settings 2</title>
    <desc>Created with Sketch.</desc>
    <defs></defs>
    <g id="Page-1" stroke="none" stroke-width="1" fill="none" fill-rule="evenodd">
        <g id="Desktop-HD" transform="translate(-482.000000, -231.000000)" fill="#87919A">
            <g id="Group">
                <path d="M493.870452,257.9891 C493.649045,257.9891 493.455539,257.837895 493.401538,257.623689 L492.568113,254.29089 C491.919194,254.090184 491.279275,253.818376 490.660957,253.482666 L487.697169,255.262019 C487.507263,255.376322 487.263356,255.344821 487.106751,255.190017 L484.803583,252.886849 C484.646978,252.730244 484.617278,252.486337 484.731581,252.296431 L486.510934,249.336243 C486.180624,248.724225 485.915116,248.086106 485.71801,247.430887 L482.367211,246.592062 C482.153005,246.53896 482,246.344555 482,246.124048 L482,242.870452 C482,242.647245 482.153005,242.453739 482.367211,242.401538 L485.69821,241.569913 C485.902516,240.913794 486.174324,240.274775 486.508234,239.659157 L484.728881,236.695369 C484.614577,236.503663 484.644278,236.259756 484.800883,236.103151 L487.100451,233.803583 C487.258856,233.645178 487.502763,233.613677 487.692669,233.731581 L490.656457,235.509134 C491.266675,235.182424 491.904794,234.915116 492.560013,234.71801 L493.397038,231.367211 C493.451939,231.151204 493.644545,231 493.865952,231 L497.119548,231 C497.340955,231 497.53626,231.151204 497.588462,231.367211 L498.421887,234.70181 C499.076206,234.906116 499.716125,235.176124 500.327243,235.507334 L503.294631,233.726181 C503.480937,233.617278 503.726644,233.645178 503.885049,233.799983 L506.184617,236.099551 C506.343021,236.256156 506.372722,236.500063 506.258419,236.691769 L504.479066,239.659157 C504.805776,240.267575 505.071284,240.905694 505.268389,241.557313 L508.622789,242.397938 C508.838795,242.451039 508.99,242.645445 508.99,242.866852 L508.99,246.116848 C508.99,246.338255 508.838795,246.53356 508.622789,246.585762 L505.268389,247.426387 C505.071284,248.083406 504.805776,248.721525 504.480866,249.326343 L506.262019,252.291931 C506.376322,252.483637 506.346621,252.727544 506.188217,252.884148 L503.888649,255.187317 C503.730244,255.343921 503.486337,255.370022 503.298231,255.261119 L500.330843,253.479966 C499.718825,253.813876 499.078906,254.082984 498.423687,254.28819 L497.593862,257.620989 C497.53896,257.835195 497.346355,257.9864 497.123148,257.9864 L493.870452,257.9891 L493.870452,257.9891 Z M490.651956,252.437735 C490.734759,252.437735 490.819361,252.458436 490.894964,252.502537 C491.605085,252.912049 492.348507,253.227059 493.102729,253.435865 C493.270134,253.483566 493.397938,253.61857 493.442039,253.787775 L494.250263,257.020671 L496.746037,257.018871 L497.552461,253.784175 C497.594762,253.61677 497.722566,253.483566 497.889971,253.435865 C498.654994,253.221658 499.396615,252.906649 500.097736,252.500737 C500.250741,252.410734 500.437046,252.414335 500.588251,252.504337 L503.471036,254.235989 L505.237789,252.465636 L503.506137,249.586451 C503.414335,249.435246 503.414335,249.247141 503.500737,249.094136 C503.899449,248.402916 504.205458,247.666694 504.413364,246.898971 C504.459266,246.729766 504.592469,246.598362 504.763475,246.556061 L508.022471,245.738837 L508.022471,243.244863 L504.763475,242.429439 C504.593369,242.387137 504.459266,242.255734 504.413364,242.086529 C504.207258,241.325106 503.900349,240.585284 503.500737,239.889563 C503.414335,239.738359 503.416135,239.550253 503.506137,239.399049 L505.234188,236.518064 L503.469236,234.753111 L500.586451,236.482962 C500.437046,236.574765 500.250741,236.577465 500.095936,236.486563 C499.393015,236.082451 498.651393,235.767441 497.888171,235.553235 C497.720766,235.507334 497.592962,235.37413 497.550661,235.204925 L496.742437,231.968429 L494.246663,231.968429 L493.433039,235.223825 C493.390738,235.39303 493.259334,235.528034 493.090129,235.573936 C492.325106,235.780942 491.585284,236.088751 490.889563,236.488363 C490.738359,236.578365 490.552053,236.576565 490.399049,236.482962 L487.519864,234.754911 L485.754911,236.521664 L487.482962,239.399049 C487.574765,239.550253 487.574765,239.738359 487.486563,239.891363 C487.080651,240.597884 486.763841,241.341306 486.551435,242.102729 C486.503733,242.271934 486.37053,242.399738 486.201324,242.442039 L482.968429,243.248463 L482.968429,245.744237 L486.223825,246.559661 C486.39393,246.601962 486.528034,246.733366 486.573936,246.902571 C486.780942,247.665794 487.086951,248.405616 487.490163,249.101336 C487.578365,249.254341 487.576565,249.442446 487.484763,249.593651 L485.756711,252.469236 L487.523464,254.237789 L490.402649,252.507937 C490.480051,252.461136 490.566454,252.437735 490.651956,252.437735 L490.651956,252.437735 Z M495.4986,241.725618 C493.971255,241.725618 492.730118,242.968555 492.730118,244.4941 C492.730118,246.019645 493.971255,247.262582 495.4986,247.262582 C497.022345,247.262582 498.263482,246.019645 498.263482,244.4941 C498.263482,242.968555 497.022345,241.725618 495.4986,241.725618 L495.4986,241.725618 Z M495.4986,248.231911 C493.438439,248.231911 491.761689,246.556961 491.761689,244.495 C491.761689,242.433039 493.438439,240.758089 495.4986,240.758089 C497.556961,240.758089 499.231911,242.433039 499.231911,244.495 C499.231911,246.556961 497.556961,248.231911 495.4986,248.231911 L495.4986,248.231911 Z" id="Settings-2"></path>
            </g>
        </g>
    </g>
</svg>