<?xml version="1.0" encoding="UTF-8"?>
<svg width="28px" height="25px" viewBox="0 0 28 25" version="1.1" xmlns="http://www.w3.org/2000/svg" xmlns:xlink="http://www.w3.org/1999/xlink">
    <!-- Generator: Sketch 46.2 (44496) - http://www.bohemiancoding.com/sketch -->
    <title>User 2</title>
    <desc>Created with Sketch.</desc>
    <defs></defs>
    <g id="Page-1" stroke="none" stroke-width="1" fill="none" fill-rule="evenodd">
        <g id="Desktop-HD" transform="translate(-482.000000, -178.000000)" fill="#87919A">
            <g id="Group">
                <path d="M495.645618,194.480085 C498.764937,194.480085 501.302489,191.94434 501.302489,188.825021 L501.302489,183.655064 C501.302489,180.535745 498.764937,178 495.645618,178 C492.528106,178 489.990554,180.535745 489.990554,183.655064 L489.990554,188.825021 C489.990554,191.945244 492.528106,194.480085 495.645618,194.480085 L495.645618,194.480085 Z M490.962575,183.655967 C490.962575,181.075054 493.061995,178.972924 495.645618,178.972924 C498.230145,178.972924 500.330468,181.074151 500.330468,183.655967 L500.330468,188.825925 C500.330468,191.406838 498.231048,193.510775 495.645618,193.510775 C493.062898,193.510775 490.962575,191.407741 490.962575,188.825925 L490.962575,183.655967 L490.962575,183.655967 Z M483.234288,201.264356 C483.367986,199.824392 484.146687,195.597548 488.626473,193.343652 C490.14774,195.739376 492.795502,197.209151 495.645618,197.209151 C498.495734,197.209151 501.143497,195.739376 502.664763,193.343652 C507.146356,195.596644 507.922347,199.824392 508.056948,201.264356 L483.234288,201.264356 L483.234288,201.264356 Z M502.676507,192.271358 C502.447052,192.165665 502.175139,192.255098 502.050475,192.476422 C500.751436,194.796263 498.296091,196.238033 495.645618,196.238033 C492.995146,196.238033 490.5398,194.796263 489.240761,192.476422 C489.115194,192.256001 488.840571,192.163858 488.614729,192.271358 C482.310146,195.144059 482.235167,201.68442 482.235167,201.749462 C482.235167,201.88045 482.286658,202.003308 482.377898,202.093645 C482.470042,202.185788 482.592899,202.236376 482.72208,202.236376 L508.570059,202.236376 C508.699241,202.236376 508.823905,202.184884 508.914241,202.093645 C509.006385,202.003308 509.055166,201.88045 509.055166,201.749462 C509.054263,201.68442 508.97838,195.144059 502.676507,192.271358 L502.676507,192.271358 Z" id="User-2"></path>
            </g>
        </g>
    </g>
</svg>